<svg id="Capa_1" enable-background="new 0 0 508 508" height="512" viewBox="0 0 508 508" width="512" xmlns="http://www.w3.org/2000/svg"><g id="XMLID_35_"><path id="XMLID_349_" d="m256.333 78.667c-96.679 0-175.333 78.654-175.333 175.333s78.654 175.333 175.333 175.333 175.334-78.654 175.334-175.333-78.654-175.333-175.334-175.333zm14.667 268h-30v-32h30zm0-62.667h-30v-122.667h30z"/><path id="XMLID_381_" d="m95.608 95.608-21.213-21.213c-47.975 47.974-74.395 111.759-74.395 179.605s26.42 131.631 74.395 179.605l21.213-21.213c-87.337-87.338-87.337-229.446 0-316.784z"/><path id="XMLID_382_" d="m433.605 74.395-21.213 21.213c87.337 87.338 87.337 229.446 0 316.784l21.213 21.213c47.975-47.974 74.395-111.759 74.395-179.605s-26.42-131.631-74.395-179.605z"/></g></svg>